PathFileType	4	(X/Y/Z)	/Users/itak/Documents/Research/Walk-IL/dataset/trc/00403_00012.trc
DataRate	CameraRate	NumFrames	NumMarkers	Units	OrigDataRate	OrigDataStartFrame	OrigNumFrames
100.000000	100.000000	4	53	mm	100.000000	353	566
Frame#	Time	RPSI			LPSI			L3			STRN			T10			C7			CLAV			RBAK			LBAK			LSHO			LUPA			LAEL			LAOL			LWTS			LWPS			LFRA			LHPS			LHTS			RSHO			RUPA			RAEL			RAOL			RWTS			RWPS			RFRA			RIFD			RHTS			RHPS			RBHD			LFHD			RFHD			LBHD			LHIP			RHIP			RASI			LASI			LKNE			LTHI			LANK			LTIP			LTOE			LMT1			LMT5			LHEE			RKNE			RTHI			RANK			RTIP			RTOE			RMT1			RMT5			RHEE			LIFD			
		X1	Y1	Z1	X2	Y2	Z2	X3	Y3	Z3	X4	Y4	Z4	X5	Y5	Z5	X6	Y6	Z6	X7	Y7	Z7	X8	Y8	Z8	X9	Y9	Z9	X10	Y10	Z10	X11	Y11	Z11	X12	Y12	Z12	X13	Y13	Z13	X14	Y14	Z14	X15	Y15	Z15	X16	Y16	Z16	X17	Y17	Z17	X18	Y18	Z18	X19	Y19	Z19	X20	Y20	Z20	X21	Y21	Z21	X22	Y22	Z22	X23	Y23	Z23	X24	Y24	Z24	X25	Y25	Z25	X26	Y26	Z26	X27	Y27	Z27	X28	Y28	Z28	X29	Y29	Z29	X30	Y30	Z30	X31	Y31	Z31	X32	Y32	Z32	X33	Y33	Z33	X34	Y34	Z34	X35	Y35	Z35	X36	Y36	Z36	X37	Y37	Z37	X38	Y38	Z38	X39	Y39	Z39	X40	Y40	Z40	X41	Y41	Z41	X42	Y42	Z42	X43	Y43	Z43	X44	Y44	Z44	X45	Y45	Z45	X46	Y46	Z46	X47	Y47	Z47	X48	Y48	Z48	X49	Y49	Z49	X50	Y50	Z50	X51	Y51	Z51	X52	Y52	Z52	X53	Y53	Z53	

354	3.53	153.6677856445312	949.0692749023438	-638.4488525390625	162.3720092773438	939.0357666015625	-771.52685546875	152.3066864013672	1026.193969726562	-699.1171264648438	387.6751708984375	1188.017944335938	-668.5172729492188	139.2645721435547	1130.794799804688	-704.3380737304688	178.8661193847656	1379.49951171875	-704.722900390625	332.7171325683594	1306.232666015625	-675.5288696289062	127.895881652832	1232.95654296875	-646.2517700195312	179.0216674804688	1345.80322265625	-806.492431640625	270.3477783203125	1362.452026367188	-845.77783203125	234.1228179931641	1250.184814453125	-916.611083984375	209.8454132080078	1055.641967773438	-937.5344848632812	163.6764221191406	1041.97216796875	-868.1028442382812	255.4744262695312	823.5599365234375	-907.9354858398438	194.1676025390625	826.1795654296875	-963.275634765625	201.0276031494141	950.821533203125	-949.12890625	184.5447692871094	738.6251831054688	-954.7589721679688	241.5570678710938	725.2417602539062	-927.7601928710938	205.9523162841797	1360.841186523438	-542.1669921875	179.5587921142578	1296.694213867188	-487.0867309570312	184.5084991455078	1036.956176757812	-427.3654479980469	197.9716339111328	1017.283813476562	-521.1982421875	403.07080078125	939.491455078125	-387.4265747070312	363.2094116210938	901.4921875	-338.172607421875	227.4229583740234	993.2083129882812	-397.8463745117188	516.5802001953125	814.5517578125	-345.3457641601562	477.8418273925781	876.8697509765625	-342.4205017089844	427.754150390625	839.3458862304688	-318.2575378417969	198.0887451171875	1564.613037109375	-616.8099365234375	375.1461181640625	1573.882690429688	-708.2807006835938	329.4703063964844	1574.971313476562	-593.6109619140625	239.1303100585938	1561.193725585938	-772.10888671875	265.1424865722656	943.3692626953125	-874.3062744140625	223.1895141601562	925.9644165039062	-515.3826293945312	360.5886535644531	940.589111328125	-554.2816772460938	370.9953002929688	946.6286010742188	-816.8922729492188	488.7418518066406	495.7516479492188	-852.213623046875	422.2991333007812	614.9383544921875	-863.3327026367188	516.3974609375	41.19292831420898	-879.1290283203125	504.04443359375	261.8872985839844	-882.5664672851562	711.1888427734375	95.80643463134766	-797.0880737304688	634.6688232421875	69.56175231933594	-773.2109985351562	639.9779663085938	64.52659606933594	-879.0460815429688	480.0132141113281	27.06050872802734	-828.4734497070312	253.9568023681641	439.2442932128906	-618.8286743164062	302.8273010253906	693.9992065429688	-544.2963256835938	128.1858673095703	47.85218048095703	-706.7194213867188	244.9630432128906	317.8448486328125	-661.4295654296875	273.35400390625	27.00156402587891	-816.5328979492188	203.4613342285156	40.5521354675293	-823.74658203125	209.0153045654297	42.30619812011719	-724.3302001953125	42.26340866088867	42.37844085693359	-740.9144287109375	204.4387969970703	649.11572265625	-907.55908203125	
355	3.54	163.0984039306641	947.1192016601562	-639.9786376953125	173.3259887695312	937.1025390625	-772.9164428710938	162.2428894042969	1024.192016601562	-700.7330932617188	397.14404296875	1186.031372070312	-667.3933715820312	149.0450134277344	1128.818359375	-706.0426025390625	188.7122802734375	1377.585693359375	-705.865478515625	342.3390197753906	1304.272583007812	-675.005126953125	137.1056976318359	1230.98974609375	-648.035400390625	190.0990142822266	1343.880004882812	-807.6148071289062	281.8349609375	1360.524536132812	-845.8927612304688	246.1241455078125	1248.433715820312	-917.316650390625	221.4078521728516	1053.866943359375	-938.2408447265625	174.4813842773438	1040.459350585938	-869.3739013671875	265.5568542480469	821.607421875	-907.9779052734375	204.8314514160156	824.4308471679688	-963.9633178710938	212.2452392578125	949.0675048828125	-949.8723754882812	194.5345916748047	737.0037841796875	-955.5000610351562	250.9134826660156	723.0088500976562	-927.6860961914062	214.0251770019531	1358.764770507812	-542.9607543945312	187.2272796630859	1294.377319335938	-488.1798400878906	192.8197326660156	1034.536499023438	-428.6786804199219	207.3253326416016	1014.93896484375	-522.3948364257812	411.76416015625	939.2798461914062	-386.5053405761719	371.8498840332031	900.864501953125	-337.635986328125	235.6676330566406	991.1605834960938	-398.8238525390625	526.3260498046875	815.8502197265625	-342.9800415039062	486.7440490722656	877.6556396484375	-340.5804748535156	437.5434265136719	839.5234985351562	-316.6367492675781	207.0365295410156	1562.632934570312	-617.8932495117188	384.9087219238281	1572.037719726562	-707.6486206054688	338.0665588378906	1573.061767578125	-593.1478881835938	249.4967651367188	1559.115600585938	-772.7058715820312	277.5080261230469	941.7692260742188	-874.8477783203125	231.0821075439453	924.0772094726562	-516.097412109375	368.9768676757812	938.6327514648438	-553.4572143554688	382.3357238769531	944.6828002929688	-816.0208740234375	498.5606689453125	492.9007873535156	-851.4932861328125	432.0371398925781	612.4757080078125	-863.0013427734375	546.8589477539062	39.08661651611328	-871.6616821289062	523.896240234375	259.6412353515625	-878.4811401367188	736.4126586914062	102.7080535888672	-783.7966918945312	660.0874633789062	74.02320861816406	-762.3046875	669.2085571289062	67.3536376953125	-867.7515869140625	509.7018127441406	24.00023078918457	-822.3233642578125	259.6449584960938	437.8038330078125	-619.6766967773438	309.8401794433594	692.3255004882812	-544.3030395507812	128.3092498779297	48.06301116943359	-707.2109375	249.2401275634766	316.3205261230469	-662.1871337890625	273.1132202148438	26.63620948791504	-816.8433227539062	203.6024780273438	40.05925369262695	-824.0953979492188	209.0982055664062	42.24037933349609	-724.6072387695312	42.19230270385742	43.41530227661133	-741.7122192382812	213.2937927246094	647.3857421875	-907.9382934570312	
356	3.55	172.6719818115234	945.1284790039062	-641.3687133789062	184.3316192626953	935.1382446289062	-774.158935546875	172.29296875	1022.150085449219	-702.1683959960938	406.6853637695312	1184.000122070312	-666.1867065429688	158.9912109375	1126.798583984375	-707.581787109375	198.6258239746094	1375.642822265625	-706.8936157226562	352.0172729492188	1302.25732421875	-674.402587890625	146.4484252929688	1228.971557617188	-649.6972045898438	201.2132720947266	1341.899169921875	-808.6285400390625	293.3561401367188	1358.540649414062	-845.9041137695312	258.2289733886719	1246.571411132812	-917.9021606445312	233.2828979492188	1051.9716796875	-938.9446411132812	185.6008758544922	1038.750610351562	-870.67822265625	276.1314697265625	819.5821533203125	-908.0972900390625	216.0402526855469	822.5846557617188	-964.7559204101562	223.8814544677734	947.2042846679688	-950.6572265625	205.1264343261719	735.2732543945312	-956.360107421875	260.854248046875	720.6829223632812	-927.7083740234375	222.2297973632812	1356.654907226562	-543.6671142578125	195.0359039306641	1292.022094726562	-489.2045593261719	201.1603240966797	1032.07763671875	-430.018310546875	216.7102508544922	1012.591979980469	-523.621337890625	420.2727661132812	938.4498291015625	-385.6085510253906	380.1781921386719	899.7244873046875	-337.1446533203125	243.881103515625	988.9544067382812	-399.8336181640625	535.3956909179688	816.1012573242188	-340.6272277832031	495.215576171875	877.531494140625	-338.77099609375	446.6780700683594	838.9868774414062	-315.1114196777344	216.0270385742188	1560.627563476562	-618.8604736328125	394.6986083984375	1570.197143554688	-706.941650390625	346.6911315917969	1571.121704101562	-592.6072998046875	259.8973693847656	1557.027954101562	-773.1985473632812	289.7144165039062	940.0441284179688	-875.1800537109375	239.1750946044922	922.1289672851562	-516.727294921875	377.5586547851562	936.6068115234375	-552.5792236328125	393.6960754394531	942.747802734375	-815.0684814453125	508.5467224121094	490.0858154296875	-850.7716064453125	442.0898132324219	610.148681640625	-862.718017578125	574.8015747070312	37.53507232666016	-863.849853515625	542.5491943359375	257.6645202636719	-874.1884765625	758.8094482421875	109.1274642944336	-770.1575317382812	682.7523193359375	78.4114990234375	-751.138916015625	695.6571655273438	70.20625305175781	-856.1099243164062	536.7531127929688	21.68889427185059	-815.919677734375	265.4046936035156	436.3702392578125	-620.4808349609375	316.9495849609375	690.5794677734375	-544.2416381835938	128.3871917724609	48.38634490966797	-707.7423095703125	253.5451049804688	314.8064880371094	-662.8601684570312	272.8812866210938	26.36688232421875	-817.1465454101562	203.8578186035156	39.78989410400391	-824.4095458984375	209.18896484375	42.27164077758789	-724.8775634765625	42.12568283081055	44.64314651489258	-742.5929565429688	222.7521057128906	645.5719604492188	-908.43505859375	
357	3.56	182.3921661376953	943.1443481445312	-642.6383666992188	195.3931427001953	933.1912231445312	-775.2782592773438	182.4531097412109	1020.099304199219	-703.436767578125	416.3056640625	1181.959716796875	-664.9046630859375	169.0923767089844	1124.771728515625	-708.9570922851562	208.6090393066406	1373.703735351562	-707.796875	361.7525329589844	1300.219604492188	-673.7219848632812	155.9381866455078	1226.933471679688	-651.2256469726562	212.3567352294922	1339.896240234375	-809.5291137695312	304.9013366699219	1356.53466796875	-845.8140869140625	270.4288635253906	1244.626953125	-918.3616943359375	245.47412109375	1049.986206054688	-939.627685546875	197.0404357910156	1036.872436523438	-871.9906005859375	287.2031860351562	817.503173828125	-908.2650756835938	227.7973175048828	820.6663818359375	-965.6220092773438	235.936279296875	945.2572631835938	-951.4578247070312	216.3365325927734	733.4570922851562	-957.3267211914062	271.4219360351562	718.3203125	-927.8348999023438	230.57763671875	1354.54052734375	-544.277587890625	202.9954223632812	1289.661254882812	-490.1524047851562	209.5101165771484	1029.610107421875	-431.3713684082031	226.0964202880859	1010.2724609375	-524.8659057617188	428.5963745117188	937.0261840820312	-384.7448425292969	388.185302734375	898.09912109375	-336.7096557617188	252.0578308105469	986.623779296875	-400.8607788085938	543.7905883789062	815.305908203125	-338.3160400390625	503.2654418945312	876.5103759765625	-337.0125732421875	455.0973815917969	837.748046875	-313.7279052734375	225.064453125	1558.633666992188	-619.7109375	404.5152893066406	1568.3896484375	-706.1614990234375	355.3600769042969	1569.196166992188	-592.0079956054688	270.3319091796875	1554.96484375	-773.5870971679688	301.75341796875	938.227294921875	-875.3218383789062	247.4801025390625	920.159912109375	-517.288818359375	386.3438720703125	934.54296875	-551.651123046875	405.0799560546875	940.8670654296875	-814.0444946289062	518.7783203125	487.3915405273438	-849.9099731445312	452.5167541503906	608.0012817382812	-862.384765625	599.9425048828125	36.36833572387695	-855.9417724609375	559.9285278320312	255.8983917236328	-869.7269897460938	778.3126831054688	114.7091751098633	-756.462158203125	702.549560546875	82.39267730712891	-739.9678344726562	719.1101684570312	72.8126220703125	-844.404296875	560.891845703125	19.96876335144043	-809.4988403320312	271.2504577636719	434.9685363769531	-621.2273559570312	324.1582946777344	688.7637939453125	-544.1156616210938	128.4262390136719	48.85305786132812	-708.2919311523438	257.8979797363281	313.3370971679688	-663.4322509765625	272.6724548339844	26.20255851745605	-817.43212890625	204.2159423828125	39.77014541625977	-824.668212890625	209.3014831542969	42.40940856933594	-725.1312255859375	42.08111572265625	46.10535049438477	-743.5289306640625	232.8522796630859	643.6875	-909.0765991210938	
